<?xml version="1.0" encoding="UTF-8" standalone="no"?>
<!-- Created with Inkscape (http://www.inkscape.org/) -->

<svg
   width="84.626953mm"
   height="84.626961mm"
   viewBox="0 0 84.626953 84.626961"
   version="1.1"
   id="svg1"
   inkscape:version="1.3.2 (091e20e, 2023-11-25, custom)"
   sodipodi:docname="Kahaan-Industries.svg"
   xmlns:inkscape="http://www.inkscape.org/namespaces/inkscape"
   xmlns:sodipodi="http://sodipodi.sourceforge.net/DTD/sodipodi-0.dtd"
   xmlns="http://www.w3.org/2000/svg"
   xmlns:svg="http://www.w3.org/2000/svg">
  <sodipodi:namedview
     id="namedview1"
     pagecolor="#ffffff"
     bordercolor="#666666"
     borderopacity="1.0"
     inkscape:showpageshadow="2"
     inkscape:pageopacity="0.0"
     inkscape:pagecheckerboard="0"
     inkscape:deskcolor="#d1d1d1"
     inkscape:document-units="mm"
     inkscape:zoom="0.93481342"
     inkscape:cx="460.5197"
     inkscape:cy="357.29055"
     inkscape:window-width="1920"
     inkscape:window-height="991"
     inkscape:window-x="-9"
     inkscape:window-y="-9"
     inkscape:window-maximized="1"
     inkscape:current-layer="layer1"
     showgrid="false" />
  <defs
     id="defs1" />
  <g
     inkscape:label="Layer 1"
     inkscape:groupmode="layer"
     id="layer1"
     transform="translate(-101.32592,-52.078134)">
    <circle
       style="fill:#083344;fill-opacity:1;stroke-width:1;stroke-linecap:square;stroke-miterlimit:3.5;paint-order:fill markers stroke"
       id="path3"
       cx="143.6394"
       cy="94.391609"
       r="42.313477" />
    <g
       id="g18"
       inkscape:export-filename="KahaanIndustries-logo.png"
       inkscape:export-xdpi="96"
       inkscape:export-ydpi="96"
       transform="translate(0.30635429,1.2673761)">
      <path
         id="circle6"
         style="fill:#93b535;fill-opacity:1;stroke:#93b535;stroke-width:0.720308;stroke-linecap:round;stroke-linejoin:round;stroke-miterlimit:0;stroke-dasharray:none;stroke-opacity:1;paint-order:normal"
         d="m 143.41237,56.580445 -7.56026,16.579345 -0.20205,0.44235 a 25.254914,25.254914 0 0 0 -5.09375,2.19419 l -7.05228,-3.4861 a 32.147256,32.147256 0 0 0 -4.7718,4.56717 l 3.26905,7.14736 a 25.254914,25.254914 0 0 0 -3.0794,7.2068 l -7.46828,2.54403 a 32.147256,32.147256 0 0 0 -0.26768,3.74499 32.147256,32.147256 0 0 0 0.20257,2.83394 l 7.38043,2.75177 a 25.254914,25.254914 0 0 0 2.88561,7.27552 l -3.46335,7.05952 a 32.147256,32.147256 0 0 0 4.57801,4.73976 l 7.14892,-3.28455 a 25.254914,25.254914 0 0 0 7.1453,3.04012 l 2.53318,7.46415 a 32.147256,32.147256 0 0 0 3.73672,0.26716 32.147256,32.147256 0 0 0 2.89336,-0.2067 l 2.73058,-7.38405 a 25.254914,25.254914 0 0 0 7.15306,-2.83187 l 7.05176,3.4861 a 32.147256,32.147256 0 0 0 4.77232,-4.56717 l -3.26905,-7.14736 a 25.254914,25.254914 0 0 0 3.0794,-7.2068 l 7.46776,-2.54403 a 32.147256,32.147256 0 0 0 0.26768,-3.74551 32.147256,32.147256 0 0 0 -0.12919,-2.80655 l -7.39076,-2.7559 a 25.254914,25.254914 0 0 0 -2.92437,-7.34839 l 3.46956,-7.07037 a 32.147256,32.147256 0 0 0 -4.57595,-4.69377 l -7.16907,3.29386 a 25.254914,25.254914 0 0 0 -5.71697,-2.58796 l -0.14986,-0.33383 z m -0.0171,5.654952 c 0,0 3.29722,8.777383 5.6441,13.996563 2.26825,5.04429 8.21965,13.53974 8.21965,13.53974 1.28766,2.34239 1.96374,4.97202 1.96474,7.64501 -3e-5,8.77252 -7.11178,15.88377 -15.8843,15.88379 -8.77252,-2e-5 -15.88376,-7.11127 -15.88378,-15.88379 0.0122,-2.5168 0.62208,-4.99475 1.77973,-7.22953 l -0.0512,-5.2e-4 c 0,0 6.86525,-9.97713 8.81238,-14.04617 2.46735,-5.15617 5.39864,-13.905093 5.39864,-13.905093 z" />
      <path
         id="path17"
         style="fill:#93b535;fill-opacity:1;stroke:none;stroke-width:0.969803;stroke-linecap:butt;stroke-linejoin:round;stroke-dasharray:none;stroke-opacity:1"
         d="m 155.59458,93.585701 c -8.98972,1.254452 -9.41462,-4.567327 -20.12736,-4.307484 -1.75708,0.134429 -2.68046,0.993371 -2.68046,0.993371 -1.08627,1.370869 -2.13826,3.199281 -2.16795,7.050836 2e-5,7.053066 5.71774,12.770786 12.77079,12.770806 7.05307,-2e-5 12.77025,-5.71774 12.77028,-12.770806 -4.7e-4,-1.271875 -0.19527,-2.529951 -0.56534,-3.736723 z"
         sodipodi:nodetypes="ccccsccc" />
      <path
         id="path18"
         style="fill:#93b535;fill-opacity:1;stroke:none;stroke-width:0.969803;stroke-linecap:butt;stroke-linejoin:round;stroke-dasharray:none;stroke-opacity:1"
         d="m 147.12965,88.227043 -3.22251,1.227581 c 2.69648,1.406838 6.93405,3.174575 11.07466,2.762777 -0.46794,-1.773136 -3.72435,-5.562803 -7.85215,-3.990358 z"
         sodipodi:nodetypes="sccs" />
    </g>
  </g>
</svg>
